<?xml version="1.0" encoding="UTF-8"?>
<svg version="1.1" xmlns="http://www.w3.org/2000/svg" width="1150" height="176">
<path d="M0 0 C0.75168457 0.68416992 1.50336914 1.36833984 2.27783203 2.07324219 C5.50822695 4.35972441 7.25675231 4.53215275 11.17578125 4.609375 C12.74066284 4.65529785 12.74066284 4.65529785 14.3371582 4.70214844 C16.30495239 4.72583496 16.30495239 4.72583496 18.3125 4.75 C24.5928125 4.87375 24.5928125 4.87375 31 5 C31 17.87 31 30.74 31 44 C22.3375 44.309375 22.3375 44.309375 13.5 44.625 C10.79006836 44.76156006 10.79006836 44.76156006 8.02539062 44.90087891 C-3.4141695 45.2360212 -3.4141695 45.2360212 -7.73266602 41.87011719 C-9.69044456 39.33364473 -11.33187452 36.73138594 -13 34 C-19.17411518 29.12939586 -26.14283193 25.79292522 -34 25 C-34.69222656 24.91878906 -35.38445312 24.83757813 -36.09765625 24.75390625 C-45.9463166 24.16405908 -55.61097586 27.69811075 -63.01171875 34.09765625 C-63.99591797 35.03931641 -63.99591797 35.03931641 -65 36 C-65.62519531 36.59683594 -66.25039062 37.19367187 -66.89453125 37.80859375 C-77.9393816 49.38282691 -81.48178142 63.99509068 -81.4284668 79.50244141 C-81.0429224 93.96239994 -75.3973144 106.91956538 -64.9296875 116.9921875 C-54.72256065 125.51641889 -43.90908757 127.14869 -31 126 C-27.92063993 125.3218076 -25.84897228 124.45136324 -23 123 C-22.154375 122.608125 -21.30875 122.21625 -20.4375 121.8125 C-13.1329143 116.380885 -10.14249994 110.28499988 -6 102 C-16.56 102 -27.12 102 -38 102 C-38 91.77 -38 81.54 -38 71 C-11.6 71 14.8 71 42 71 C42 101.03 42 131.06 42 162 C30.45 162 18.9 162 7 162 C6.505 149.625 6.505 149.625 6 137 C3.69 140.3 1.38 143.6 -1 147 C-10.79236603 158.09167674 -23.49435533 163.17923417 -38.01171875 164.21484375 C-51.35878568 164.62527016 -64.02554039 161.87327082 -76 156 C-77.18142578 155.42958984 -77.18142578 155.42958984 -78.38671875 154.84765625 C-96.91003092 145.24656774 -110.2854838 127.50910612 -117 108 C-122.67742311 90.01354191 -123.81906905 68.11685871 -118 50 C-117.50693359 48.43572266 -117.50693359 48.43572266 -117.00390625 46.83984375 C-109.04422407 24.17265192 -95.1706079 7.52645019 -74 -3.8125 C-50.32058581 -15.01274664 -21.84912412 -14.84828703 0 0 Z " fill="#FFFFFF" transform="translate(121,11)"/>
<path d="M0 0 C42.9 0 85.8 0 130 0 C130 37 130 37 118 51 C114.66663034 55.07385077 114.66663034 55.07385077 111.34375 59.15625 C108.60697862 62.47686594 105.80893615 65.74043709 103 69 C98.68065728 74.01314773 94.44902723 79.08537515 90.27734375 84.22265625 C87.71795946 87.34396367 85.11406209 90.4245003 82.5 93.5 C79.12716411 97.46903543 75.78823355 101.46017021 72.5 105.5 C68.75935103 110.09565445 64.94542169 114.62313422 61.10791016 119.13769531 C57.23993955 123.6961308 53.448651 128.3123372 49.6796875 132.953125 C48 135 48 135 47 136 C69.275 136.495 69.275 136.495 92 137 C92 128.42 92 119.84 92 111 C104.54 111 117.08 111 130 111 C130 130.8 130 150.6 130 171 C87.1 171 44.2 171 0 171 C-1.1652393 168.66952139 -1.12906179 167.29754651 -1.1328125 164.703125 C-1.13563232 163.83365234 -1.13845215 162.96417969 -1.14135742 162.06835938 C-1.11923571 158.25682132 -1.07325743 154.44591672 -1.01513672 150.63476562 C-1.00228884 148.39840574 -1.05953337 146.18637796 -1.16015625 143.953125 C-1.23744043 134.19323658 3.043649 129.32068987 9.45947266 122.66064453 C12.01820948 119.90239923 14.27595154 116.9217158 16.5625 113.9375 C20.80484823 108.47799828 25.16818036 103.14409515 29.61328125 97.84765625 C34.45825877 92.06698749 39.20898542 86.20876095 43.9609375 80.3515625 C45.03645735 79.02604087 46.11197822 77.70052006 47.1875 76.375 C48.0086731 75.36252197 48.0086731 75.36252197 48.84643555 74.32958984 C52.91252283 69.32237118 57.01425837 64.34557833 61.125 59.375 C66.51799548 52.8509006 71.78977498 46.24231177 76.98828125 39.5625 C79 37 79 37 80 36 C65.81 35.67 51.62 35.34 37 35 C37 43.91 37 52.82 37 62 C24.79 62 12.58 62 0 62 C0 41.54 0 21.08 0 0 Z " fill="#FFFFFF" transform="translate(584,2)"/>
<path d="M0 0 C9.5828065 7.81076149 14.3086384 17.32968924 15.97850037 29.63110352 C16.39327381 34.13525635 16.29595836 38.65664678 16.2734375 43.17578125 C16.27131508 44.7923336 16.27131508 44.7923336 16.26914978 46.44154358 C16.26357736 49.86470379 16.25102993 53.28779725 16.23828125 56.7109375 C16.23326269 59.03971259 16.2287004 61.36848872 16.22460938 63.69726562 C16.21361695 69.38934842 16.19637136 75.08138166 16.17578125 80.7734375 C21.45578125 80.7734375 26.73578125 80.7734375 32.17578125 80.7734375 C32.17578125 91.0034375 32.17578125 101.2334375 32.17578125 111.7734375 C14.68578125 111.7734375 -2.80421875 111.7734375 -20.82421875 111.7734375 C-22.20279644 109.01628212 -21.92873938 106.82371525 -21.90600586 103.73828125 C-21.89947495 102.46936035 -21.89294403 101.20043945 -21.88621521 99.89306641 C-21.88047422 99.21221985 -21.87473324 98.53137329 -21.86881828 97.82989502 C-21.85141698 95.69306749 -21.84112305 93.55631499 -21.832901 91.41943359 C-21.80847407 85.34253827 -21.77321255 79.26574263 -21.72827148 73.18896484 C-21.70127948 69.47137118 -21.68436988 65.75383709 -21.67340279 62.03616333 C-21.66724375 60.62653419 -21.65730345 59.2169158 -21.6433239 57.80734253 C-21.04575368 42.93128304 -21.04575368 42.93128304 -26.82421875 29.7734375 C-32.63291195 25.43837829 -38.7665827 24.77812985 -45.82421875 25.7734375 C-51.77755121 27.51837977 -56.35771747 30.53026128 -60.82421875 34.7734375 C-61.97713559 37.07927119 -61.97819213 38.47210637 -62.02954102 41.03955078 C-62.04948624 41.92031281 -62.06943146 42.80107483 -62.08998108 43.70852661 C-62.11504982 45.13671219 -62.11504982 45.13671219 -62.140625 46.59375 C-62.1614061 47.56754608 -62.18218719 48.54134216 -62.20359802 49.54464722 C-62.26910473 52.66250397 -62.32798372 55.78044653 -62.38671875 58.8984375 C-62.4299029 61.00912354 -62.47351715 63.11980083 -62.51757812 65.23046875 C-62.62478728 70.41136986 -62.72605158 75.59235749 -62.82421875 80.7734375 C-56.55421875 80.7734375 -50.28421875 80.7734375 -43.82421875 80.7734375 C-43.82421875 91.0034375 -43.82421875 101.2334375 -43.82421875 111.7734375 C-67.91421875 111.7734375 -92.00421875 111.7734375 -116.82421875 111.7734375 C-116.82421875 101.5434375 -116.82421875 91.3134375 -116.82421875 80.7734375 C-111.21421875 80.7734375 -105.60421875 80.7734375 -99.82421875 80.7734375 C-99.82421875 62.9534375 -99.82421875 45.1334375 -99.82421875 26.7734375 C-105.43421875 26.7734375 -111.04421875 26.7734375 -116.82421875 26.7734375 C-116.82421875 16.2134375 -116.82421875 5.6534375 -116.82421875 -5.2265625 C-99.00421875 -5.2265625 -81.18421875 -5.2265625 -62.82421875 -5.2265625 C-62.32921875 -0.7715625 -62.32921875 -0.7715625 -61.82421875 3.7734375 C-61.2415625 3.38671875 -60.65890625 3 -60.05859375 2.6015625 C-42.8370811 -8.33788893 -17.80486642 -12.26889955 0 0 Z " fill="#FFFFFF" transform="translate(986.82421875,61.2265625)"/>
<path d="M0 0 C8.93392484 8.14017348 13.25613866 19.23328527 13.99038696 31.14212036 C14.04582411 34.17490552 14.04176427 37.20124349 14.01171875 40.234375 C14.00888885 41.33002777 14.00605896 42.42568054 14.00314331 43.55453491 C13.99204138 47.01824347 13.96695564 50.48168347 13.94140625 53.9453125 C13.93136354 56.30858999 13.92223996 58.67187157 13.9140625 61.03515625 C13.89213482 66.79697684 13.85767472 72.5585993 13.81640625 78.3203125 C18.76640625 78.3203125 23.71640625 78.3203125 28.81640625 78.3203125 C28.81640625 88.5503125 28.81640625 98.7803125 28.81640625 109.3203125 C12.64640625 109.3203125 -3.52359375 109.3203125 -20.18359375 109.3203125 C-20.51359375 108.0003125 -20.84359375 106.6803125 -21.18359375 105.3203125 C-21.82425781 105.65804687 -22.46492188 105.99578125 -23.125 106.34375 C-23.98996094 106.78976563 -24.85492188 107.23578125 -25.74609375 107.6953125 C-26.59300781 108.13617188 -27.43992187 108.57703125 -28.3125 109.03125 C-40.39534318 114.4562 -56.02696413 114.12987199 -68.359375 109.56640625 C-79.20996766 104.77893867 -86.60322926 98.34013955 -91.18359375 87.0703125 C-93.94748902 76.99022388 -93.33477966 65.47797635 -88.18359375 56.3203125 C-81.41960423 46.48178229 -71.83024238 40.78402663 -60.18359375 38.3203125 C-48.95719807 36.31559899 -30.81242239 35.00589818 -20.18359375 40.3203125 C-21.31011421 31.95060906 -21.31011421 31.95060906 -26.18359375 25.3203125 C-32.07440367 22.15901398 -37.12403874 21.81265636 -43.74609375 21.8828125 C-44.71756348 21.88821045 -45.6890332 21.8936084 -46.68994141 21.89916992 C-54.75623893 22.0684725 -61.61609866 23.44158345 -69.18359375 26.3203125 C-71.82359375 27.3103125 -74.46359375 28.3003125 -77.18359375 29.3203125 C-80.81359375 22.0603125 -84.44359375 14.8003125 -88.18359375 7.3203125 C-84.52975153 3.66647028 -81.33890956 1.54976455 -76.80859375 -0.6796875 C-76.10686035 -1.02781494 -75.40512695 -1.37594238 -74.68212891 -1.73461914 C-52.8904587 -12.20393561 -20.28443729 -15.6034133 0 0 Z M-58.12109375 67.1328125 C-59.50918861 69.99065486 -60.05601396 72.13081771 -60.18359375 75.3203125 C-58.63907071 79.4661375 -57.04425598 82.09750697 -53.18359375 84.3203125 C-44.03799216 87.01465986 -35.82166407 84.63582344 -27.18359375 81.3203125 C-26.39597656 81.02769531 -25.60835937 80.73507813 -24.796875 80.43359375 C-22.48960514 79.24953843 -21.57871772 78.52562421 -20.18359375 76.3203125 C-19.85766905 72.87924174 -19.85766905 72.87924174 -20.015625 69.125 C-20.03987549 67.85382324 -20.06412598 66.58264648 -20.08911133 65.27294922 C-20.12029053 64.2985791 -20.15146973 63.32420898 -20.18359375 62.3203125 C-24.68346937 62.23263507 -29.18312275 62.17969241 -33.68359375 62.1328125 C-34.95203125 62.10767578 -36.22046875 62.08253906 -37.52734375 62.05664062 C-48.66611788 61.84958426 -48.66611788 61.84958426 -58.12109375 67.1328125 Z " fill="#FFFFFF" transform="translate(409.18359375,63.6796875)"/>
<path d="M0 0 C15.44852285 16.32503479 16.65234375 34.88390643 16.65234375 56.74609375 C-11.39765625 56.74609375 -39.44765625 56.74609375 -68.34765625 56.74609375 C-65.3543389 66.1333304 -65.3543389 66.1333304 -61.34765625 69.74609375 C-61.34765625 70.40609375 -61.34765625 71.06609375 -61.34765625 71.74609375 C-45.71261111 79.70640212 -31.32120816 80.10103762 -14.71728516 74.71728516 C-13.33047638 74.24543154 -11.94945254 73.75612845 -10.57568359 73.24755859 C-5.85731845 71.57533409 -5.85731845 71.57533409 -3.30297852 72.43115234 C0.4298611 74.94146252 1.95383654 79.20903368 3.96484375 83.12109375 C4.43212891 83.98476562 4.89941406 84.8484375 5.38085938 85.73828125 C5.81720703 86.57359375 6.25355469 87.40890625 6.703125 88.26953125 C7.10184814 89.03185059 7.50057129 89.79416992 7.91137695 90.57958984 C8.78339333 93.12926804 8.67722876 94.27601868 7.65234375 96.74609375 C-5.10850454 106.89573643 -21.59556835 109.92766936 -37.41015625 109.99609375 C-38.57482422 110.01671875 -39.73949219 110.03734375 -40.93945312 110.05859375 C-51.93615364 110.10760411 -61.75232837 108.14043534 -71.53515625 103.05859375 C-72.55403931 102.53422729 -72.55403931 102.53422729 -73.59350586 101.99926758 C-83.71233979 96.60553856 -89.73945842 89.68856459 -95.34765625 79.74609375 C-95.74855469 79.06675781 -96.14945313 78.38742188 -96.5625 77.6875 C-105.00248926 62.36812328 -104.8277844 43.20194907 -100.34765625 26.74609375 C-97.92046522 19.53933136 -94.75849654 12.94511254 -90.34765625 6.74609375 C-89.68765625 6.74609375 -89.02765625 6.74609375 -88.34765625 6.74609375 C-88.08210938 6.153125 -87.8165625 5.56015625 -87.54296875 4.94921875 C-83.89709333 -1.77063006 -76.87727066 -5.25898072 -70.28515625 -8.56640625 C-69.61274902 -8.90381836 -68.9403418 -9.24123047 -68.24755859 -9.58886719 C-46.23718851 -20.23088919 -18.14031301 -16.43298943 0 0 Z M-60.34765625 19.74609375 C-64.29601864 23.87392716 -65.47658867 26.13289101 -67.34765625 31.74609375 C-51.83765625 31.74609375 -36.32765625 31.74609375 -20.34765625 31.74609375 C-23.3668607 22.6884804 -25.2081659 19.02817346 -33.34765625 14.74609375 C-43.07112555 12.72263436 -52.4852013 13.31317607 -60.34765625 19.74609375 Z " fill="#FFFFFF" transform="translate(1133.34765625,66.25390625)"/>
<path d="M0 0 C15.24686338 16.07588905 16.65234375 35.37657798 16.65234375 56.7421875 C-11.39765625 56.7421875 -39.44765625 56.7421875 -68.34765625 56.7421875 C-65.3543389 66.12942415 -65.3543389 66.12942415 -61.34765625 69.7421875 C-61.34765625 70.4021875 -61.34765625 71.0621875 -61.34765625 71.7421875 C-45.71261111 79.70249587 -31.32120816 80.09713137 -14.71728516 74.71337891 C-13.33047638 74.24152529 -11.94945254 73.7522222 -10.57568359 73.24365234 C-5.85731845 71.57142784 -5.85731845 71.57142784 -3.30297852 72.42724609 C0.4298611 74.93755627 1.95383654 79.20512743 3.96484375 83.1171875 C4.43212891 83.98085937 4.89941406 84.84453125 5.38085938 85.734375 C5.81720703 86.5696875 6.25355469 87.405 6.703125 88.265625 C7.10184814 89.02794434 7.50057129 89.79026367 7.91137695 90.57568359 C8.78055783 93.1170711 8.6526344 94.2748039 7.65234375 96.7421875 C-4.87063434 107.20476107 -21.93754389 110.09843433 -37.66015625 110.0546875 C-38.80677734 110.07080078 -39.95339844 110.08691406 -41.13476562 110.10351562 C-52.03291529 110.10968323 -61.84247015 108.09214517 -71.53515625 103.0546875 C-72.21586182 102.70293457 -72.89656738 102.35118164 -73.59790039 101.98876953 C-86.25329845 95.22251711 -94.84541475 84.29596623 -99.78515625 70.8671875 C-104.91268842 53.17955359 -105.1161279 33.3140641 -96.3046875 16.75 C-94.41197924 13.35449402 -92.41049378 10.03671929 -90.34765625 6.7421875 C-89.68765625 6.7421875 -89.02765625 6.7421875 -88.34765625 6.7421875 C-88.08210937 6.14921875 -87.8165625 5.55625 -87.54296875 4.9453125 C-83.89709333 -1.77453631 -76.87727066 -5.26288697 -70.28515625 -8.5703125 C-69.61274902 -8.90772461 -68.9403418 -9.24513672 -68.24755859 -9.59277344 C-46.25388562 -20.22672238 -18.11569741 -16.45331577 0 0 Z M-60.34765625 19.7421875 C-64.29601864 23.87002091 -65.47658867 26.12898476 -67.34765625 31.7421875 C-51.83765625 31.7421875 -36.32765625 31.7421875 -20.34765625 31.7421875 C-23.3668607 22.68457415 -25.2081659 19.02426721 -33.34765625 14.7421875 C-43.07112555 12.71872811 -52.4852013 13.30926982 -60.34765625 19.7421875 Z " fill="#FFFFFF" transform="translate(284.34765625,66.2578125)"/>
<path d="M0 0 C13.35466812 10.70734123 23.1287607 23.69824468 25.71875 41.03125 C27.55844626 60.45026604 23.72688756 77.3395678 11.6875 92.9375 C1.50524312 104.64795395 -13.0844059 111.88064851 -28.52685547 113.21899414 C-47.15465135 114.08477274 -63.72332991 111.22630998 -78.25 98.6875 C-91.73104765 85.91148337 -98.1142869 71.34997516 -98.99609375 52.83203125 C-99.01434736 34.9252426 -92.62813789 20.02486969 -80.98046875 6.6875 C-60.43937096 -13.42156705 -23.5020323 -16.6933553 0 0 Z M-57.4609375 30.8359375 C-63.37578859 39.15275857 -65.34227511 47.9329367 -64 58 C-62.10256675 65.89109005 -57.82109947 72.94250125 -50.875 77.34765625 C-43.32723442 81.21866102 -35.54042193 82.67464731 -27.234375 80.1640625 C-19.37911573 76.57377529 -14.19669825 71.1127304 -10.5625 63.3125 C-7.35515332 54.25972927 -8.16450691 45.15309383 -11.80078125 36.375 C-15.12178979 29.79788862 -19.98981759 25.90961067 -26.625 22.75 C-37.97524558 20.22772321 -49.42812564 21.88944088 -57.4609375 30.8359375 Z " fill="#FFFFFF" transform="translate(828,63)"/>
<path d="M0 0 C17.49 0 34.98 0 53 0 C53.495 3.465 53.495 3.465 54 7 C54.76570312 6.49339844 54.76570312 6.49339844 55.546875 5.9765625 C70.60391615 -3.26055849 90.25661463 -0.1959561 107 1 C107 14.86 107 28.72 107 43 C96.44 43 85.88 43 75 43 C75 39.37 75 35.74 75 32 C65.22373974 33.03266729 65.22373974 33.03266729 57 38 C53.6500244 43.23014121 53.53155941 47.7609445 53.48828125 53.7734375 C53.47033005 54.6971817 53.45237885 55.6209259 53.43388367 56.57266235 C53.37994576 59.50672926 53.345938 62.44063501 53.3125 65.375 C53.27931234 67.37111609 53.24482135 69.36721097 53.20898438 71.36328125 C53.12178825 76.24220858 53.06157876 81.12041379 53 86 C60.92 86 68.84 86 77 86 C77 96.23 77 106.46 77 117 C51.59 117 26.18 117 0 117 C0 106.77 0 96.54 0 86 C5.94 86 11.88 86 18 86 C18 68.18 18 50.36 18 32 C12.06 32 6.12 32 0 32 C0 21.44 0 10.88 0 0 Z " fill="#FFFFFF" transform="translate(460,56)"/>
</svg>
