<?xml version="1.0" standalone="no"?>
<!DOCTYPE svg PUBLIC "-//W3C//DTD SVG 20010904//EN"
 "http://www.w3.org/TR/2001/REC-SVG-20010904/DTD/svg10.dtd">
<svg version="1.0" xmlns="http://www.w3.org/2000/svg"
 width="1150.000000pt" height="176.000000pt" viewBox="0 0 1150.000000 176.000000"
 preserveAspectRatio="xMidYMid meet">

<g transform="translate(0.000000,176.000000) scale(0.100000,-0.100000)"
fill="#000000" stroke="none">
<path d="M715 1753 c-120 -17 -261 -76 -366 -154 -340 -252 -448 -760 -244
-1146 81 -154 163 -244 294 -323 124 -74 219 -102 367 -108 131 -5 193 7 285
53 62 32 149 113 191 177 l33 53 5 -135 5 -135 168 -3 167 -2 0 455 0 455
-392 -2 -393 -3 -3 -152 -3 -153 165 0 165 0 -15 -38 c-27 -63 -89 -135 -146
-170 -166 -99 -382 -47 -507 122 -74 100 -105 202 -105 346 0 211 111 403 280
486 67 33 183 43 262 25 66 -16 151 -74 202 -138 l42 -53 169 0 169 0 0 190 0
190 -121 0 -121 0 -59 44 c-80 60 -155 94 -246 112 -70 13 -180 16 -248 7z"/>
<path d="M5840 1430 l0 -300 185 0 185 0 0 135 0 135 225 0 c124 0 225 -2 225
-5 0 -6 -139 -177 -529 -655 l-290 -355 -1 -177 0 -178 645 0 645 0 0 300 0
300 -180 0 -180 0 0 -130 c0 -97 -3 -132 -13 -136 -7 -2 -115 -3 -241 -2
l-229 3 422 504 421 505 0 178 0 178 -645 0 -645 0 0 -300z"/>
<path d="M2261 1220 c-254 -67 -425 -285 -439 -560 -16 -330 178 -587 489
-647 98 -18 270 -13 359 11 62 17 262 115 258 126 -2 4 -30 57 -62 117 l-59
109 -81 -27 c-230 -77 -407 -60 -506 47 -39 43 -53 68 -66 119 l-6 25 432 0
433 0 -7 101 c-8 131 -28 217 -73 308 -43 86 -133 182 -210 224 -123 66 -314
85 -462 47z m275 -285 c53 -27 90 -72 100 -123 l7 -32 -237 0 c-158 0 -236 3
-236 10 0 17 30 73 54 98 43 48 104 70 197 71 51 1 76 -5 115 -24z"/>
<path d="M10751 1220 c-254 -67 -425 -285 -439 -560 -16 -329 179 -588 489
-646 98 -19 270 -14 359 10 62 17 262 115 258 126 -2 4 -30 57 -62 117 l-59
109 -81 -27 c-230 -77 -407 -60 -506 47 -39 43 -53 68 -66 119 l-6 25 432 0
433 0 -7 103 c-8 129 -28 212 -72 305 -42 87 -131 182 -211 225 -123 66 -314
85 -462 47z m265 -279 c53 -24 90 -64 108 -118 l15 -43 -240 0 c-160 0 -239 3
-239 10 0 17 30 73 54 98 22 25 65 50 106 63 49 15 153 9 196 -10z"/>
<path d="M7825 1221 c-268 -44 -467 -231 -514 -485 -61 -329 134 -640 449
-717 68 -17 260 -17 320 0 210 59 368 212 427 414 29 101 33 242 8 337 -37
144 -130 275 -253 356 -114 76 -301 117 -437 95z m210 -331 c113 -48 177 -187
153 -335 -11 -71 -43 -130 -94 -175 -53 -46 -99 -63 -176 -63 -163 0 -279 123
-279 296 0 123 46 210 143 270 60 37 176 40 253 7z"/>
<path d="M3580 1206 c-41 -8 -97 -22 -125 -31 -60 -21 -181 -80 -214 -104
l-23 -17 54 -107 c40 -82 56 -106 68 -100 8 3 53 20 100 36 74 26 100 30 200
31 99 1 122 -2 162 -21 58 -27 88 -71 88 -132 0 -42 -1 -43 -27 -37 -16 4 -94
9 -174 13 -120 5 -160 2 -217 -12 -142 -34 -245 -123 -282 -244 -24 -76 -25
-118 -5 -194 42 -163 177 -262 381 -282 91 -9 172 6 256 48 l67 33 3 -26 3
-25 243 -3 242 -2 0 155 0 155 -79 0 -80 0 -3 283 c-3 268 -4 285 -26 340 -48
118 -166 211 -301 237 -92 17 -232 20 -311 6z m308 -783 l-3 -78 -68 -34 c-58
-29 -82 -35 -152 -39 -72 -4 -88 -2 -118 17 -56 34 -76 113 -39 157 39 46 68
53 230 54 l153 0 -3 -77z"/>
<path d="M9450 1195 c-59 -17 -136 -50 -170 -75 -16 -11 -31 -20 -34 -20 -3 0
-6 20 -6 45 l0 45 -265 0 -265 0 0 -155 0 -155 80 0 80 0 0 -270 0 -269 -82
-3 -83 -3 -3 -152 -3 -153 366 0 366 0 -3 153 -3 152 -92 3 -93 3 0 226 0 225
38 35 c49 45 76 59 143 71 112 21 201 -28 229 -126 6 -22 10 -178 10 -389 l0
-353 265 0 265 0 0 155 0 155 -79 0 -78 0 -6 263 c-6 273 -12 320 -56 405 -47
92 -134 159 -245 188 -63 17 -216 17 -276 -1z"/>
<path d="M4610 1035 l0 -155 85 0 85 0 0 -270 0 -270 -85 0 -85 0 0 -155 0
-155 378 2 377 3 0 150 0 150 -117 3 -118 3 0 218 c0 210 1 219 23 252 27 41
74 66 145 75 l52 7 0 -62 0 -61 160 0 160 0 0 211 0 210 -202 -3 c-219 -3
-200 1 -330 -66 -5 -2 -8 12 -8 32 l0 36 -260 0 -260 0 0 -155z"/>
</g>
</svg>
