<?xml version="1.0" standalone="no"?>
<!DOCTYPE svg PUBLIC "-//W3C//DTD SVG 20010904//EN"
 "http://www.w3.org/TR/2001/REC-SVG-20010904/DTD/svg10.dtd">
<svg version="1.0" xmlns="http://www.w3.org/2000/svg"
 width="120.000000pt" height="120.000000pt" viewBox="0 0 120.000000 120.000000"
 preserveAspectRatio="xMidYMid meet">

<g transform="translate(0.000000,120.000000) scale(0.100000,-0.100000)"
fill="#000000" stroke="none">
<path d="M160 690 l0 -310 78 0 78 0 49 50 49 50 -82 0 -82 0 0 215 0 215 298
0 298 0 44 45 44 45 -387 0 -387 0 0 -310z"/>
<path d="M310 775 l0 -65 60 0 60 0 0 65 0 65 -60 0 -60 0 0 -65z"/>
<path d="M480 775 l0 -65 83 0 83 0 64 65 64 65 -147 0 -147 0 0 -65z"/>
<path d="M820 775 l-44 -45 92 0 92 0 0 -225 0 -225 -323 0 -323 0 -44 -45
-44 -45 412 0 412 0 0 315 0 315 -93 0 -93 0 -44 -45z"/>
<path d="M630 595 l-64 -65 82 0 82 0 0 65 c0 56 -3 65 -18 65 -10 0 -47 -29
-82 -65z"/>
<path d="M780 595 l0 -65 65 0 65 0 0 65 0 65 -65 0 -65 0 0 -65z"/>
<path d="M310 595 l0 -55 83 0 83 0 54 55 54 55 -137 0 -137 0 0 -55z"/>
<path d="M445 400 l-59 -60 172 0 172 0 0 60 0 60 -113 0 -113 0 -59 -60z"/>
<path d="M780 405 l0 -55 60 0 60 0 0 55 0 55 -60 0 -60 0 0 -55z"/>
</g>
</svg>
