<svg width="149" height="50" viewBox="0 0 149 50" fill="none" xmlns="http://www.w3.org/2000/svg">
<path fill-rule="evenodd" clip-rule="evenodd" d="M148.118 50V0H0V50H59.4818V15.8766L62.5712 21.3261H66.1425L69.111 16.0896V50H148.118ZM69.111 9.04542V8.93651H72.8745V46.2366H144.355V3.76344H3.76344V46.2366H55.7183L55.7184 8.92031H59.4818V9.04542H59.61L64.3568 17.276C65.0824 16.0276 65.8663 14.6704 66.7083 13.2042C67.5503 11.7382 68.3484 10.3518 69.1033 9.04542H69.111Z" fill="black"/>
<path fill-rule="evenodd" clip-rule="evenodd" d="M19.7516 41.483V37.9259H13.0085V24.8254H19.7516V21.2682H13.0085V12.5056H19.7516V8.94849H9.41797V41.483H19.7516ZM26.9764 41.4831V26.9944C27.5895 26.9365 28.1514 26.857 28.6622 26.7558C29.1731 26.6546 29.6328 26.5317 30.0415 26.3871H29.9977C31.2529 25.9244 32.333 25.2159 33.2379 24.2615C33.3839 24.1169 33.4715 24.0157 33.5007 23.9578C35.1645 22.2226 35.9965 20.126 35.9965 17.6678V8.94855H23.3859V41.4831H26.9764ZM32.406 12.5056H26.9764V23.4373C27.8229 23.3216 28.5746 23.1047 29.2315 22.7865C29.8882 22.4685 30.421 22.078 30.8297 21.6153C31.2967 21.0948 31.6762 20.4947 31.9681 19.815C32.2601 19.1355 32.406 18.4197 32.406 17.6678V12.5056ZM52.1976 41.4831V8.94855H39.587V41.4831H52.1976ZM43.1775 37.926H48.6071V12.5056H43.1775V37.926ZM79.9586 41.4831V27.0378H85.3878V41.4831H88.9785V8.94855H76.3679V41.4831H79.9586ZM79.9586 23.4806H85.3878V12.5056H79.9586V23.4806ZM96.1593 41.4831V30.378L99.1804 24.6085L103.866 41.4831H107.544C106.61 38.0127 105.617 34.4267 104.566 30.725C103.516 27.0233 102.523 23.4373 101.589 19.9669L107.369 8.94855H103.341L96.1593 22.6565V8.94855H92.5692V41.4831H96.1593ZM121.599 37.926V41.4831H111.266V8.94855H121.599V12.5057H114.856V21.2683H121.599V24.8254H114.856V37.926H121.599ZM128.824 41.4831V26.9944C129.379 26.9365 129.933 26.8426 130.488 26.7124C131.043 26.5823 131.597 26.4449 132.152 26.3003C132.794 27.1101 133.305 27.9776 133.684 28.9031C134.064 29.8285 134.254 30.7106 134.254 31.5492V41.4831H137.844V31.5492C137.844 30.3346 137.603 29.1055 137.122 27.862C136.64 26.6184 135.976 25.3894 135.13 24.1748C136.006 23.2493 136.677 22.2371 137.144 21.1382C137.611 20.0392 137.844 18.8824 137.844 17.6678V8.94855H125.234V41.4831H128.824ZM134.254 12.5056H128.824V23.4373C129.671 23.3216 130.423 23.1047 131.079 22.7865C131.736 22.4685 132.269 22.078 132.678 21.6153C133.145 21.0948 133.524 20.4947 133.816 19.815C134.108 19.1355 134.254 18.4197 134.254 17.6678V12.5056Z" fill="black"/>
</svg>
