<svg width="140" height="78" viewBox="0 0 140 78" fill="none" xmlns="http://www.w3.org/2000/svg">
<path d="M62.151 55.6852H71.607L92.8993 0.0310154L69.3683 16.6448L76.9618 16.5449L69.06 40.0171L68.8306 23.1461L60.2433 23.2639L44.7718 65.5579L40.1918 77.1842L62.4126 61.1077L54.6088 61.1054L61.7488 38.9434L62.151 55.6852Z" fill="#252525"/>
<path d="M12.5835 40.9629C12.5569 41.2023 12.4964 41.3745 12.4069 41.4792C12.3151 41.5841 12.1269 41.636 11.8423 41.636H8.42493L9.86914 28.8447H13.3338C13.7462 28.8447 13.9291 29.0543 13.8814 29.4731L12.5835 40.9629ZM17.2072 23.1447H3.67511L0 55.684H6.83701L7.81612 47.0224H13.7033C14.6533 47.0224 15.4556 46.9102 16.1149 46.6856C16.7727 46.4606 17.315 46.1548 17.738 45.7651C18.1617 45.376 18.4746 44.92 18.6771 44.3957C18.879 43.873 19.0153 43.2969 19.0864 42.6679L20.8449 27.0949C20.9796 25.8979 20.7477 24.9402 20.148 24.222C19.5491 23.5036 18.5686 23.1447 17.2072 23.1447Z" fill="#252525"/>
<path d="M54.5937 23.1447H47.5661L41.7982 42.0849L41.1841 23.1447H36.198L31.2576 42.0849L31.2117 23.1447H24.1857L25.9236 55.6838H32.1908L36.9069 38.7189L37.8409 55.6838H44.1081L54.5937 23.1447Z" fill="#252525"/>
<path d="M90.9196 46.4831H87.7387L91.166 34.9488L90.9196 46.4831ZM89.3181 23.1447L77.9841 55.684H84.9169L86.1683 51.6444H90.869L90.8508 55.684H97.7835L96.676 23.1447H89.3181Z" fill="#252525"/>
<path d="M112.563 49.7596H109.429C109.018 49.7596 108.836 49.5508 108.883 49.1316L111.062 29.8321C111.11 29.4135 111.339 29.2037 111.751 29.2037H119.301L118.797 23.1447H108.97C107.607 23.1447 106.546 23.5036 105.785 24.222C105.022 24.9402 104.575 25.8979 104.44 27.0949L101.778 50.6568C101.576 52.4528 101.825 53.7389 102.528 54.5169C103.232 55.2965 104.582 55.684 106.576 55.684H118.589L120.707 36.9232H114.012L112.563 49.7596Z" fill="#252525"/>
<path d="M130.993 42.5341H136.691L137.324 36.9232H131.626L132.498 29.2037H140L139.498 23.1447H126.108L122.433 55.684H135.537L137.409 49.6244H130.192L130.993 42.5341Z" fill="#252525"/>
</svg>
